<svg width="28" height="28" viewBox="0 0 28 28" fill="none" xmlns="http://www.w3.org/2000/svg">
<g clip-path="url(#clip0_24_16)">
<mask id="mask0_24_16" style="mask-type:luminance" maskUnits="userSpaceOnUse" x="0" y="0" width="28" height="28">
<path d="M28 0H0V28H28V0Z" fill="white"/>
</mask>
<g mask="url(#mask0_24_16)">
<path d="M18.4247 4.89316V4.39316V0.820312C18.4247 0.64336 18.2813 0.5 18.1043 0.5H13.7112C13.5342 0.5 13.3909 0.64336 13.3909 0.820312V4.39316V4.89316H12.8909H5.21732H4.77958L4.7217 4.45926L4.52112 2.95538C4.4254 2.23809 4.12866 1.61004 3.73689 1.16924C3.34311 0.726187 2.88209 0.5 2.44876 0.5H0.984375C0.807423 0.5 0.664062 0.64336 0.664062 0.820312C0.664062 0.997265 0.807423 1.14062 0.984375 1.14062H2.44876C2.67005 1.14062 2.8592 1.24656 2.98421 1.33758C3.12368 1.43914 3.25659 1.57565 3.37452 1.73471C3.61152 2.05439 3.81409 2.50023 3.88603 3.04L6.23417 20.6515C6.32065 21.3008 6.65598 21.9196 7.19092 22.3879C7.58715 22.7349 8.05156 22.9622 8.53251 23.0569L9.20042 23.1883L8.87523 23.7863C8.68186 24.1419 8.57196 24.5492 8.57196 24.983C8.57196 26.3706 9.70143 27.5 11.0887 27.5C12.4761 27.5 13.6057 26.3705 13.6057 24.983C13.6057 24.5697 13.5051 24.1803 13.3276 23.8359L12.952 23.1068H13.7721H18.0706H18.8907L18.5151 23.8359C18.3376 24.1803 18.2369 24.5697 18.2369 24.983C18.2369 26.3706 19.3664 27.5 20.7539 27.5C22.1412 27.5 23.2707 26.3706 23.2707 24.983C23.2707 24.5697 23.17 24.1803 22.9927 23.8357L22.6175 23.1068H23.4372H25.5865C25.7632 23.1068 25.9068 22.9633 25.9068 22.7865C25.9068 22.6097 25.7633 22.4662 25.5865 22.4662H9.0386C7.98643 22.4662 7.00812 21.6094 6.86904 20.5666L6.6975 19.2795L6.62206 18.7135H7.19312H23.3898C24.0448 18.7135 24.7025 18.4629 25.2374 17.9948M18.4247 4.89316H18.9247H25.1473C25.8348 4.89316 26.4348 5.1631 26.8542 5.64199M18.4247 4.89316L26.8542 5.64199M25.2374 17.9948C25.772 17.5265 26.1076 16.9075 26.1945 16.2579M25.2374 17.9948L26.1945 16.2579M25.2374 17.9948L26.7157 7.49945L26.8542 5.64199M26.8542 5.64199C27.2736 6.12095 27.4618 6.75159 27.3709 7.43337M26.8542 5.64199L27.3709 7.43337M27.3709 7.43337L26.1945 16.2579M26.7358 7.34848L26.2402 7.28241M26.7358 7.34848C26.7978 6.88301 26.6819 6.41794 26.3723 6.06411C26.0626 5.71046 25.6169 5.53378 25.1473 5.53378H18.9247H12.8909H5.43607H4.86499L4.94045 6.09985L6.47875 17.6389L6.5366 18.0728H6.97437H23.3898C24.4419 18.0728 25.4203 17.2161 25.5594 16.1735L26.7358 7.34848ZM17.784 1.64062V1.14062H17.284H14.5315H14.0315V1.64062V4.39316V4.89316H14.5315H17.284H17.784V4.39316V1.64062ZM11.0887 26.8594C12.1239 26.8594 12.9651 26.0181 12.9651 24.983C12.9651 23.948 12.1238 23.1068 11.0887 23.1068C10.0538 23.1068 9.21259 23.9481 9.21259 24.983C9.21259 26.0181 10.0538 26.8594 11.0887 26.8594ZM20.7539 26.8594C21.7891 26.8594 22.6303 26.0181 22.6303 24.983C22.6303 23.948 21.789 23.1068 20.7539 23.1068C19.719 23.1068 18.8777 23.9481 18.8777 24.983C18.8777 26.0181 19.7189 26.8594 20.7539 26.8594Z" stroke="#515076"/>
<path d="M10.9043 5.14526L11.1974 18.2949" stroke="#515076" stroke-width="1.5"/>
<path d="M14.8704 4.66516L15.1635 17.8148" stroke="#515076" stroke-width="1.5"/>
<path d="M18.8364 5.18518L19.1295 18.3349" stroke="#515076" stroke-width="1.5"/>
<path d="M22.8025 5.70508L23.0955 18.8548" stroke="#515076" stroke-width="1.5"/>
</g>
</g>
<defs>
<clipPath id="clip0_24_16">
<rect width="28" height="28" fill="white"/>
</clipPath>
</defs>
</svg>
